<svg width="164" height="25" viewBox="0 0 164 25" fill="none" xmlns="http://www.w3.org/2000/svg">
<path d="M10.5781 19.9688V12.7188C10.5781 12.2083 10.5 11.7708 10.3438 11.4062C10.1875 11.0417 9.94271 10.7552 9.60938 10.5469C9.27604 10.3385 8.84375 10.2344 8.3125 10.2344C7.86458 10.2344 7.47396 10.3125 7.14062 10.4688C6.81771 10.625 6.56771 10.849 6.39062 11.1406C6.22396 11.4323 6.14062 11.7917 6.14062 12.2188H1.26562C1.26562 11.4583 1.4375 10.75 1.78125 10.0938C2.125 9.4375 2.61458 8.85938 3.25 8.35938C3.89583 7.85938 4.66667 7.47396 5.5625 7.20312C6.45833 6.92188 7.46354 6.78125 8.57812 6.78125C9.90104 6.78125 11.0781 7.00521 12.1094 7.45312C13.151 7.89062 13.974 8.55208 14.5781 9.4375C15.1823 10.3125 15.4844 11.4167 15.4844 12.75V19.8281C15.4844 20.849 15.5417 21.651 15.6562 22.2344C15.7812 22.8073 15.9583 23.3073 16.1875 23.7344V24H11.2656C11.0365 23.5104 10.8646 22.9062 10.75 22.1875C10.6354 21.4583 10.5781 20.7188 10.5781 19.9688ZM11.1875 13.6875L11.2188 16.375H8.79688C8.25521 16.375 7.78646 16.4427 7.39062 16.5781C7.00521 16.7135 6.69271 16.901 6.45312 17.1406C6.21354 17.3698 6.03646 17.6406 5.92188 17.9531C5.81771 18.2552 5.76562 18.5885 5.76562 18.9531C5.76562 19.2969 5.84896 19.6094 6.01562 19.8906C6.18229 20.1615 6.41146 20.375 6.70312 20.5312C6.99479 20.6875 7.33333 20.7656 7.71875 20.7656C8.35417 20.7656 8.89583 20.6406 9.34375 20.3906C9.80208 20.1406 10.1562 19.8385 10.4062 19.4844C10.6562 19.1198 10.7812 18.7812 10.7812 18.4688L11.9531 20.5C11.7656 20.9167 11.5365 21.349 11.2656 21.7969C10.9948 22.2344 10.651 22.6458 10.2344 23.0312C9.81771 23.4062 9.3125 23.7135 8.71875 23.9531C8.13542 24.1927 7.43229 24.3125 6.60938 24.3125C5.54688 24.3125 4.58333 24.099 3.71875 23.6719C2.85417 23.2344 2.16146 22.6354 1.64062 21.875C1.13021 21.1146 0.875 20.2396 0.875 19.25C0.875 18.3646 1.03646 17.5781 1.35938 16.8906C1.68229 16.2031 2.16667 15.6198 2.8125 15.1406C3.46875 14.6615 4.29167 14.3021 5.28125 14.0625C6.27083 13.8125 7.42708 13.6875 8.75 13.6875H11.1875Z" fill="#93C547"/>
<path d="M25.75 20.5156C26.2708 20.5156 26.724 20.4167 27.1094 20.2188C27.4948 20.0208 27.7917 19.7448 28 19.3906C28.2188 19.026 28.3281 18.5885 28.3281 18.0781H32.9219C32.9219 19.3073 32.6042 20.3906 31.9688 21.3281C31.3438 22.2656 30.5 23 29.4375 23.5312C28.375 24.0521 27.1771 24.3125 25.8438 24.3125C24.5312 24.3125 23.3854 24.099 22.4062 23.6719C21.4271 23.2344 20.6094 22.625 19.9531 21.8438C19.2969 21.0625 18.8021 20.1562 18.4688 19.125C18.1458 18.0833 17.9844 16.9583 17.9844 15.75V15.3438C17.9844 14.1458 18.1458 13.026 18.4688 11.9844C18.8021 10.9427 19.2969 10.0312 19.9531 9.25C20.6094 8.46875 21.4219 7.86458 22.3906 7.4375C23.3698 7 24.5156 6.78125 25.8281 6.78125C27.2135 6.78125 28.4375 7.04688 29.5 7.57812C30.5729 8.10938 31.4115 8.875 32.0156 9.875C32.6198 10.8646 32.9219 12.0573 32.9219 13.4531H28.3281C28.3281 12.9115 28.2292 12.4271 28.0312 12C27.8438 11.5625 27.5521 11.2188 27.1562 10.9688C26.7708 10.7083 26.2917 10.5781 25.7188 10.5781C25.125 10.5781 24.6354 10.7083 24.25 10.9688C23.875 11.2188 23.5885 11.5677 23.3906 12.0156C23.1927 12.4635 23.0573 12.974 22.9844 13.5469C22.9115 14.1094 22.875 14.7083 22.875 15.3438V15.75C22.875 16.3958 22.9115 17.0104 22.9844 17.5938C23.0573 18.1667 23.1927 18.6719 23.3906 19.1094C23.599 19.5469 23.8906 19.8906 24.2656 20.1406C24.6406 20.3906 25.1354 20.5156 25.75 20.5156Z" fill="#93C547"/>
<path d="M43.3125 24.3125C41.9688 24.3125 40.7656 24.099 39.7031 23.6719C38.6406 23.2448 37.7396 22.6562 37 21.9062C36.2708 21.1458 35.7135 20.2708 35.3281 19.2812C34.9427 18.2917 34.75 17.2344 34.75 16.1094V15.5156C34.75 14.2552 34.9271 13.0938 35.2812 12.0312C35.6354 10.9688 36.151 10.0469 36.8281 9.26562C37.5156 8.47396 38.3594 7.86458 39.3594 7.4375C40.3594 7 41.5 6.78125 42.7812 6.78125C43.9792 6.78125 45.0469 6.97917 45.9844 7.375C46.9219 7.76042 47.7135 8.31771 48.3594 9.04688C49.0052 9.76562 49.4948 10.6354 49.8281 11.6562C50.1719 12.6667 50.3438 13.8021 50.3438 15.0625V17.0625H36.7188V13.9219H45.5625V13.5469C45.5625 12.9531 45.4531 12.4323 45.2344 11.9844C45.026 11.5365 44.7135 11.1927 44.2969 10.9531C43.8906 10.7031 43.375 10.5781 42.75 10.5781C42.1562 10.5781 41.6615 10.7031 41.2656 10.9531C40.8698 11.2031 40.5521 11.5573 40.3125 12.0156C40.0833 12.4635 39.9167 12.9896 39.8125 13.5938C39.7083 14.1875 39.6562 14.8281 39.6562 15.5156V16.1094C39.6562 16.7656 39.7448 17.3646 39.9219 17.9062C40.099 18.4479 40.3594 18.9115 40.7031 19.2969C41.0469 19.6823 41.4635 19.9844 41.9531 20.2031C42.4427 20.4219 43 20.5312 43.625 20.5312C44.3958 20.5312 45.1302 20.3854 45.8281 20.0938C46.526 19.7917 47.1302 19.3229 47.6406 18.6875L49.9219 21.2969C49.5781 21.7969 49.0938 22.2812 48.4688 22.75C47.8542 23.2083 47.1146 23.5833 46.25 23.875C45.3854 24.1667 44.4062 24.3125 43.3125 24.3125Z" fill="#93C547"/>
<path d="M61.7188 19.2969C61.7188 18.9844 61.6198 18.7083 61.4219 18.4688C61.2344 18.2292 60.8906 18.0104 60.3906 17.8125C59.901 17.6146 59.2083 17.4167 58.3125 17.2188C57.4688 17.0417 56.6823 16.8125 55.9531 16.5312C55.224 16.2396 54.5885 15.8906 54.0469 15.4844C53.5052 15.0677 53.0833 14.5781 52.7812 14.0156C52.4792 13.4427 52.3281 12.7917 52.3281 12.0625C52.3281 11.3542 52.4792 10.6823 52.7812 10.0469C53.0938 9.41146 53.5417 8.84896 54.125 8.35938C54.7188 7.86979 55.4375 7.48438 56.2812 7.20312C57.1354 6.92188 58.1042 6.78125 59.1875 6.78125C60.6771 6.78125 61.9635 7.01562 63.0469 7.48438C64.1302 7.94271 64.9635 8.58854 65.5469 9.42188C66.1302 10.2448 66.4219 11.1875 66.4219 12.25H61.5469C61.5469 11.8125 61.4635 11.4323 61.2969 11.1094C61.1302 10.7865 60.875 10.5365 60.5312 10.3594C60.1875 10.1719 59.7344 10.0781 59.1719 10.0781C58.7344 10.0781 58.349 10.1562 58.0156 10.3125C57.6927 10.4583 57.4375 10.6615 57.25 10.9219C57.0729 11.1823 56.9844 11.4844 56.9844 11.8281C56.9844 12.0677 57.0365 12.2865 57.1406 12.4844C57.2552 12.6719 57.4271 12.849 57.6562 13.0156C57.8958 13.1719 58.2031 13.3125 58.5781 13.4375C58.9635 13.5625 59.4323 13.6823 59.9844 13.7969C61.1615 14.0156 62.2344 14.3229 63.2031 14.7188C64.1823 15.1146 64.9635 15.6615 65.5469 16.3594C66.1406 17.0573 66.4375 17.9792 66.4375 19.125C66.4375 19.875 66.2656 20.5625 65.9219 21.1875C65.5885 21.8125 65.1042 22.3594 64.4688 22.8281C63.8333 23.2969 63.0729 23.6615 62.1875 23.9219C61.3021 24.1823 60.3021 24.3125 59.1875 24.3125C57.5938 24.3125 56.2448 24.026 55.1406 23.4531C54.0365 22.8802 53.2031 22.1615 52.6406 21.2969C52.0885 20.4219 51.8125 19.526 51.8125 18.6094H56.3906C56.4115 19.1719 56.5521 19.6302 56.8125 19.9844C57.0833 20.3385 57.4323 20.599 57.8594 20.7656C58.2865 20.9219 58.7656 21 59.2969 21C59.8281 21 60.2708 20.9271 60.625 20.7812C60.9792 20.6354 61.25 20.4375 61.4375 20.1875C61.625 19.9271 61.7188 19.6302 61.7188 19.2969Z" fill="#93C547"/>
<path d="M78.1562 19.2969C78.1562 18.9844 78.0573 18.7083 77.8594 18.4688C77.6719 18.2292 77.3281 18.0104 76.8281 17.8125C76.3385 17.6146 75.6458 17.4167 74.75 17.2188C73.9062 17.0417 73.1198 16.8125 72.3906 16.5312C71.6615 16.2396 71.026 15.8906 70.4844 15.4844C69.9427 15.0677 69.5208 14.5781 69.2188 14.0156C68.9167 13.4427 68.7656 12.7917 68.7656 12.0625C68.7656 11.3542 68.9167 10.6823 69.2188 10.0469C69.5312 9.41146 69.9792 8.84896 70.5625 8.35938C71.1562 7.86979 71.875 7.48438 72.7188 7.20312C73.5729 6.92188 74.5417 6.78125 75.625 6.78125C77.1146 6.78125 78.401 7.01562 79.4844 7.48438C80.5677 7.94271 81.401 8.58854 81.9844 9.42188C82.5677 10.2448 82.8594 11.1875 82.8594 12.25H77.9844C77.9844 11.8125 77.901 11.4323 77.7344 11.1094C77.5677 10.7865 77.3125 10.5365 76.9688 10.3594C76.625 10.1719 76.1719 10.0781 75.6094 10.0781C75.1719 10.0781 74.7865 10.1562 74.4531 10.3125C74.1302 10.4583 73.875 10.6615 73.6875 10.9219C73.5104 11.1823 73.4219 11.4844 73.4219 11.8281C73.4219 12.0677 73.474 12.2865 73.5781 12.4844C73.6927 12.6719 73.8646 12.849 74.0938 13.0156C74.3333 13.1719 74.6406 13.3125 75.0156 13.4375C75.401 13.5625 75.8698 13.6823 76.4219 13.7969C77.599 14.0156 78.6719 14.3229 79.6406 14.7188C80.6198 15.1146 81.401 15.6615 81.9844 16.3594C82.5781 17.0573 82.875 17.9792 82.875 19.125C82.875 19.875 82.7031 20.5625 82.3594 21.1875C82.026 21.8125 81.5417 22.3594 80.9062 22.8281C80.2708 23.2969 79.5104 23.6615 78.625 23.9219C77.7396 24.1823 76.7396 24.3125 75.625 24.3125C74.0312 24.3125 72.6823 24.026 71.5781 23.4531C70.474 22.8802 69.6406 22.1615 69.0781 21.2969C68.526 20.4219 68.25 19.526 68.25 18.6094H72.8281C72.849 19.1719 72.9896 19.6302 73.25 19.9844C73.5208 20.3385 73.8698 20.599 74.2969 20.7656C74.724 20.9219 75.2031 21 75.7344 21C76.2656 21 76.7083 20.9271 77.0625 20.7812C77.4167 20.6354 77.6875 20.4375 77.875 20.1875C78.0625 19.9271 78.1562 19.6302 78.1562 19.2969Z" fill="#93C547"/>
<path d="M84.8906 15.7188V15.3906C84.8906 14.151 85.0677 13.0104 85.4219 11.9688C85.776 10.9167 86.2969 10.0052 86.9844 9.23438C87.6719 8.46354 88.5156 7.86458 89.5156 7.4375C90.5156 7 91.6615 6.78125 92.9531 6.78125C94.2656 6.78125 95.4219 7 96.4219 7.4375C97.4323 7.86458 98.2812 8.46354 98.9688 9.23438C99.6562 10.0052 100.177 10.9167 100.531 11.9688C100.885 13.0104 101.062 14.151 101.062 15.3906V15.7188C101.062 16.9479 100.885 18.0885 100.531 19.1406C100.177 20.1823 99.6562 21.0938 98.9688 21.875C98.2812 22.6458 97.4375 23.2448 96.4375 23.6719C95.4375 24.099 94.2865 24.3125 92.9844 24.3125C91.6927 24.3125 90.5417 24.099 89.5312 23.6719C88.5208 23.2448 87.6719 22.6458 86.9844 21.875C86.2969 21.0938 85.776 20.1823 85.4219 19.1406C85.0677 18.0885 84.8906 16.9479 84.8906 15.7188ZM89.7812 15.3906V15.7188C89.7812 16.3854 89.8333 17.0104 89.9375 17.5938C90.0521 18.1771 90.2344 18.6875 90.4844 19.125C90.7344 19.5625 91.0625 19.9062 91.4688 20.1562C91.8854 20.3958 92.3906 20.5156 92.9844 20.5156C93.5781 20.5156 94.0781 20.3958 94.4844 20.1562C94.8906 19.9062 95.2188 19.5625 95.4688 19.125C95.7188 18.6875 95.8958 18.1771 96 17.5938C96.1146 17.0104 96.1719 16.3854 96.1719 15.7188V15.3906C96.1719 14.7344 96.1146 14.1198 96 13.5469C95.8958 12.9635 95.7188 12.4479 95.4688 12C95.2188 11.5521 94.8854 11.2031 94.4688 10.9531C94.0625 10.7031 93.5573 10.5781 92.9531 10.5781C92.3698 10.5781 91.875 10.7031 91.4688 10.9531C91.0625 11.2031 90.7344 11.5521 90.4844 12C90.2344 12.4479 90.0521 12.9635 89.9375 13.5469C89.8333 14.1198 89.7812 14.7344 89.7812 15.3906Z" fill="#93C547"/>
<path d="M108.766 0V24H103.875V0H108.766Z" fill="#192A6B"/>
<path d="M117.422 7.09375V24H112.531V7.09375H117.422ZM112.234 2.71875C112.234 2.01042 112.484 1.43229 112.984 0.984375C113.484 0.526042 114.141 0.296875 114.953 0.296875C115.766 0.296875 116.422 0.526042 116.922 0.984375C117.432 1.43229 117.688 2.01042 117.688 2.71875C117.688 3.41667 117.432 3.99479 116.922 4.45312C116.422 4.90104 115.766 5.125 114.953 5.125C114.141 5.125 113.484 4.90104 112.984 4.45312C112.484 3.99479 112.234 3.41667 112.234 2.71875Z" fill="#192A6B"/>
<path d="M126.859 20.5469L130.391 7.09375H135.516L129.906 24H126.828L126.859 20.5469ZM124.578 7.09375L128.094 20.5625L128.125 24H125.047L119.438 7.09375H124.578Z" fill="#192A6B"/>
<path d="M142.203 11.0312V24H137.328V7.09375H141.906L142.203 11.0312ZM147.25 6.96875L147.172 11.5156C146.964 11.4844 146.693 11.4583 146.359 11.4375C146.026 11.4062 145.74 11.3906 145.5 11.3906C144.875 11.3906 144.333 11.4688 143.875 11.625C143.427 11.7708 143.052 11.9896 142.75 12.2812C142.458 12.5729 142.24 12.9375 142.094 13.375C141.948 13.8021 141.875 14.2969 141.875 14.8594L140.953 14.4062C140.953 13.2917 141.062 12.2708 141.281 11.3438C141.5 10.4167 141.818 9.61458 142.234 8.9375C142.651 8.25 143.161 7.71875 143.766 7.34375C144.37 6.96875 145.057 6.78125 145.828 6.78125C146.078 6.78125 146.333 6.79688 146.594 6.82812C146.854 6.85938 147.073 6.90625 147.25 6.96875Z" fill="#192A6B"/>
<path d="M156.906 24.3125C155.562 24.3125 154.359 24.099 153.297 23.6719C152.234 23.2448 151.333 22.6562 150.594 21.9062C149.865 21.1458 149.307 20.2708 148.922 19.2812C148.536 18.2917 148.344 17.2344 148.344 16.1094V15.5156C148.344 14.2552 148.521 13.0938 148.875 12.0312C149.229 10.9688 149.745 10.0469 150.422 9.26562C151.109 8.47396 151.953 7.86458 152.953 7.4375C153.953 7 155.094 6.78125 156.375 6.78125C157.573 6.78125 158.641 6.97917 159.578 7.375C160.516 7.76042 161.307 8.31771 161.953 9.04688C162.599 9.76562 163.089 10.6354 163.422 11.6562C163.766 12.6667 163.938 13.8021 163.938 15.0625V17.0625H150.312V13.9219H159.156V13.5469C159.156 12.9531 159.047 12.4323 158.828 11.9844C158.62 11.5365 158.307 11.1927 157.891 10.9531C157.484 10.7031 156.969 10.5781 156.344 10.5781C155.75 10.5781 155.255 10.7031 154.859 10.9531C154.464 11.2031 154.146 11.5573 153.906 12.0156C153.677 12.4635 153.51 12.9896 153.406 13.5938C153.302 14.1875 153.25 14.8281 153.25 15.5156V16.1094C153.25 16.7656 153.339 17.3646 153.516 17.9062C153.693 18.4479 153.953 18.9115 154.297 19.2969C154.641 19.6823 155.057 19.9844 155.547 20.2031C156.036 20.4219 156.594 20.5312 157.219 20.5312C157.99 20.5312 158.724 20.3854 159.422 20.0938C160.12 19.7917 160.724 19.3229 161.234 18.6875L163.516 21.2969C163.172 21.7969 162.688 22.2812 162.062 22.75C161.448 23.2083 160.708 23.5833 159.844 23.875C158.979 24.1667 158 24.3125 156.906 24.3125Z" fill="#192A6B"/>
</svg>
