<svg width="32" height="32" viewBox="0 0 32 32" fill="none" xmlns="http://www.w3.org/2000/svg">
<path d="M28.0002 8H4.00016C2.5335 8 1.3335 9.2 1.3335 10.6667V21.3333C1.3335 22.8 2.5335 24 4.00016 24H28.0002C29.4668 24 30.6668 22.8 30.6668 21.3333V10.6667C30.6668 9.2 29.4668 8 28.0002 8ZM14.6668 17.3333H10.6668V21.3333H8.00016V17.3333H4.00016V14.6667H8.00016V10.6667H10.6668V14.6667H14.6668V17.3333ZM20.6668 20C19.5602 20 18.6668 19.1067 18.6668 18C18.6668 16.8933 19.5602 16 20.6668 16C21.7735 16 22.6668 16.8933 22.6668 18C22.6668 19.1067 21.7735 20 20.6668 20ZM26.0002 16C24.8935 16 24.0002 15.1067 24.0002 14C24.0002 12.8933 24.8935 12 26.0002 12C27.1068 12 28.0002 12.8933 28.0002 14C28.0002 15.1067 27.1068 16 26.0002 16Z" fill="#192A6B"/>
</svg>
