<svg width="32" height="32" viewBox="0 0 32 32" fill="none" xmlns="http://www.w3.org/2000/svg">
<g clip-path="url(#clip0_417_1779)">
<path d="M27.1516 7.75756H17.3382L21.592 3.50383L20.6869 2.58585L15.5152 7.75756L10.3435 2.58585L9.42549 3.50383L13.6922 7.75756H3.87883C2.45661 7.75756 1.29297 8.90827 1.29297 10.3434V25.8586C1.29297 27.2808 2.45661 28.4444 3.87883 28.4444H27.1516C28.5738 28.4444 29.7374 27.2808 29.7374 25.8586V10.3434C29.7374 8.90827 28.5738 7.75756 27.1516 7.75756ZM27.1516 25.8586H3.87883V10.3434H27.1516V25.8586ZM11.6364 12.9293V23.2727L20.6869 18.101L11.6364 12.9293Z" fill="#192A6B"/>
</g>
<defs>
<clipPath id="clip0_417_1779">
<rect width="31.0303" height="31.0303" fill="white"/>
</clipPath>
</defs>
</svg>
