<svg width="30" height="32" viewBox="0 0 30 32" fill="none" xmlns="http://www.w3.org/2000/svg">
<path d="M15.0061 8.8125C11.0311 8.8125 7.8248 12.0188 7.8248 15.9938C7.8248 19.9688 11.0311 23.175 15.0061 23.175C18.9811 23.175 22.1873 19.9688 22.1873 15.9938C22.1873 12.0188 18.9811 8.8125 15.0061 8.8125ZM15.0061 20.6625C12.4373 20.6625 10.3373 18.5688 10.3373 15.9938C10.3373 13.4188 12.4311 11.325 15.0061 11.325C17.5811 11.325 19.6748 13.4188 19.6748 15.9938C19.6748 18.5688 17.5748 20.6625 15.0061 20.6625ZM24.1561 8.51875C24.1561 9.45 23.4061 10.1938 22.4811 10.1938C21.5498 10.1938 20.8061 9.44375 20.8061 8.51875C20.8061 7.59375 21.5561 6.84375 22.4811 6.84375C23.4061 6.84375 24.1561 7.59375 24.1561 8.51875ZM28.9123 10.2188C28.8061 7.975 28.2936 5.9875 26.6498 4.35C25.0123 2.7125 23.0248 2.2 20.7811 2.0875C18.4686 1.95625 11.5373 1.95625 9.2248 2.0875C6.9873 2.19375 4.9998 2.70625 3.35605 4.34375C1.7123 5.98125 1.20605 7.96875 1.09355 10.2125C0.962305 12.525 0.962305 19.4562 1.09355 21.7687C1.1998 24.0125 1.7123 26 3.35605 27.6375C4.9998 29.275 6.98105 29.7875 9.2248 29.9C11.5373 30.0312 18.4686 30.0312 20.7811 29.9C23.0248 29.7937 25.0123 29.2812 26.6498 27.6375C28.2873 26 28.7998 24.0125 28.9123 21.7687C29.0436 19.4562 29.0436 12.5313 28.9123 10.2188ZM25.9248 24.25C25.4373 25.475 24.4936 26.4188 23.2623 26.9125C21.4186 27.6438 17.0436 27.475 15.0061 27.475C12.9686 27.475 8.5873 27.6375 6.7498 26.9125C5.5248 26.425 4.58105 25.4813 4.0873 24.25C3.35605 22.4062 3.5248 18.0312 3.5248 15.9938C3.5248 13.9563 3.3623 9.575 4.0873 7.7375C4.5748 6.5125 5.51855 5.56875 6.7498 5.075C8.59355 4.34375 12.9686 4.5125 15.0061 4.5125C17.0436 4.5125 21.4248 4.35 23.2623 5.075C24.4873 5.5625 25.4311 6.50625 25.9248 7.7375C26.6561 9.58125 26.4873 13.9563 26.4873 15.9938C26.4873 18.0312 26.6561 22.4125 25.9248 24.25Z" fill="#192A6B"/>
</svg>
