<svg width="76" height="25" viewBox="0 0 76 25" fill="none" xmlns="http://www.w3.org/2000/svg">
<path d="M5.76562 7.09375V24H0.875V7.09375H5.76562ZM0.578125 2.71875C0.578125 2.01042 0.828125 1.43229 1.32812 0.984375C1.82812 0.526042 2.48438 0.296875 3.29688 0.296875C4.10938 0.296875 4.76562 0.526042 5.26562 0.984375C5.77604 1.43229 6.03125 2.01042 6.03125 2.71875C6.03125 3.41667 5.77604 3.99479 5.26562 4.45312C4.76562 4.90104 4.10938 5.125 3.29688 5.125C2.48438 5.125 1.82812 4.90104 1.32812 4.45312C0.828125 3.99479 0.578125 3.41667 0.578125 2.71875ZM16.3438 20.5156C16.8646 20.5156 17.3177 20.4167 17.7031 20.2188C18.0885 20.0208 18.3854 19.7448 18.5938 19.3906C18.8125 19.026 18.9219 18.5885 18.9219 18.0781H23.5156C23.5156 19.3073 23.1979 20.3906 22.5625 21.3281C21.9375 22.2656 21.0938 23 20.0312 23.5312C18.9688 24.0521 17.7708 24.3125 16.4375 24.3125C15.125 24.3125 13.9792 24.099 13 23.6719C12.0208 23.2344 11.2031 22.625 10.5469 21.8438C9.89062 21.0625 9.39583 20.1562 9.0625 19.125C8.73958 18.0833 8.57812 16.9583 8.57812 15.75V15.3438C8.57812 14.1458 8.73958 13.026 9.0625 11.9844C9.39583 10.9427 9.89062 10.0312 10.5469 9.25C11.2031 8.46875 12.0156 7.86458 12.9844 7.4375C13.9635 7 15.1094 6.78125 16.4219 6.78125C17.8073 6.78125 19.0312 7.04688 20.0938 7.57812C21.1667 8.10938 22.0052 8.875 22.6094 9.875C23.2135 10.8646 23.5156 12.0573 23.5156 13.4531H18.9219C18.9219 12.9115 18.8229 12.4271 18.625 12C18.4375 11.5625 18.1458 11.2188 17.75 10.9688C17.3646 10.7083 16.8854 10.5781 16.3125 10.5781C15.7188 10.5781 15.2292 10.7083 14.8438 10.9688C14.4688 11.2188 14.1823 11.5677 13.9844 12.0156C13.7865 12.4635 13.651 12.974 13.5781 13.5469C13.5052 14.1094 13.4688 14.7083 13.4688 15.3438V15.75C13.4688 16.3958 13.5052 17.0104 13.5781 17.5938C13.651 18.1667 13.7865 18.6719 13.9844 19.1094C14.1927 19.5469 14.4844 19.8906 14.8594 20.1406C15.2344 20.3906 15.7292 20.5156 16.3438 20.5156ZM25.2344 15.7188V15.3906C25.2344 14.151 25.4115 13.0104 25.7656 11.9688C26.1198 10.9167 26.6406 10.0052 27.3281 9.23438C28.0156 8.46354 28.8594 7.86458 29.8594 7.4375C30.8594 7 32.0052 6.78125 33.2969 6.78125C34.6094 6.78125 35.7656 7 36.7656 7.4375C37.776 7.86458 38.625 8.46354 39.3125 9.23438C40 10.0052 40.5208 10.9167 40.875 11.9688C41.2292 13.0104 41.4062 14.151 41.4062 15.3906V15.7188C41.4062 16.9479 41.2292 18.0885 40.875 19.1406C40.5208 20.1823 40 21.0938 39.3125 21.875C38.625 22.6458 37.7812 23.2448 36.7812 23.6719C35.7812 24.099 34.6302 24.3125 33.3281 24.3125C32.0365 24.3125 30.8854 24.099 29.875 23.6719C28.8646 23.2448 28.0156 22.6458 27.3281 21.875C26.6406 21.0938 26.1198 20.1823 25.7656 19.1406C25.4115 18.0885 25.2344 16.9479 25.2344 15.7188ZM30.125 15.3906V15.7188C30.125 16.3854 30.1771 17.0104 30.2812 17.5938C30.3958 18.1771 30.5781 18.6875 30.8281 19.125C31.0781 19.5625 31.4062 19.9062 31.8125 20.1562C32.2292 20.3958 32.7344 20.5156 33.3281 20.5156C33.9219 20.5156 34.4219 20.3958 34.8281 20.1562C35.2344 19.9062 35.5625 19.5625 35.8125 19.125C36.0625 18.6875 36.2396 18.1771 36.3438 17.5938C36.4583 17.0104 36.5156 16.3854 36.5156 15.7188V15.3906C36.5156 14.7344 36.4583 14.1198 36.3438 13.5469C36.2396 12.9635 36.0625 12.4479 35.8125 12C35.5625 11.5521 35.2292 11.2031 34.8125 10.9531C34.4062 10.7031 33.901 10.5781 33.2969 10.5781C32.7135 10.5781 32.2188 10.7031 31.8125 10.9531C31.4062 11.2031 31.0781 11.5521 30.8281 12C30.5781 12.4479 30.3958 12.9635 30.2812 13.5469C30.1771 14.1198 30.125 14.7344 30.125 15.3906ZM48.75 10.7031V24H43.8594V7.09375H48.4531L48.75 10.7031ZM48.1094 14.9531L46.8906 14.9844C46.8906 13.7135 47.0469 12.5729 47.3594 11.5625C47.6719 10.5521 48.1146 9.69271 48.6875 8.98438C49.2708 8.26562 49.9635 7.71875 50.7656 7.34375C51.5781 6.96875 52.474 6.78125 53.4531 6.78125C54.2448 6.78125 54.9688 6.89583 55.625 7.125C56.2812 7.35417 56.8438 7.72396 57.3125 8.23438C57.7917 8.73438 58.1562 9.40104 58.4062 10.2344C58.6562 11.0573 58.7812 12.0729 58.7812 13.2812V24H53.875V13.2656C53.875 12.5573 53.776 12.0104 53.5781 11.625C53.3802 11.2396 53.0885 10.9688 52.7031 10.8125C52.3281 10.6562 51.8698 10.5781 51.3281 10.5781C50.7552 10.5781 50.2656 10.6927 49.8594 10.9219C49.4531 11.1406 49.1198 11.4479 48.8594 11.8438C48.599 12.2396 48.4062 12.7031 48.2812 13.2344C48.1667 13.7656 48.1094 14.3385 48.1094 14.9531ZM70.9688 19.2969C70.9688 18.9844 70.8698 18.7083 70.6719 18.4688C70.4844 18.2292 70.1406 18.0104 69.6406 17.8125C69.151 17.6146 68.4583 17.4167 67.5625 17.2188C66.7188 17.0417 65.9323 16.8125 65.2031 16.5312C64.474 16.2396 63.8385 15.8906 63.2969 15.4844C62.7552 15.0677 62.3333 14.5781 62.0312 14.0156C61.7292 13.4427 61.5781 12.7917 61.5781 12.0625C61.5781 11.3542 61.7292 10.6823 62.0312 10.0469C62.3438 9.41146 62.7917 8.84896 63.375 8.35938C63.9688 7.86979 64.6875 7.48438 65.5312 7.20312C66.3854 6.92188 67.3542 6.78125 68.4375 6.78125C69.9271 6.78125 71.2135 7.01562 72.2969 7.48438C73.3802 7.94271 74.2135 8.58854 74.7969 9.42188C75.3802 10.2448 75.6719 11.1875 75.6719 12.25H70.7969C70.7969 11.8125 70.7135 11.4323 70.5469 11.1094C70.3802 10.7865 70.125 10.5365 69.7812 10.3594C69.4375 10.1719 68.9844 10.0781 68.4219 10.0781C67.9844 10.0781 67.599 10.1562 67.2656 10.3125C66.9427 10.4583 66.6875 10.6615 66.5 10.9219C66.3229 11.1823 66.2344 11.4844 66.2344 11.8281C66.2344 12.0677 66.2865 12.2865 66.3906 12.4844C66.5052 12.6719 66.6771 12.849 66.9062 13.0156C67.1458 13.1719 67.4531 13.3125 67.8281 13.4375C68.2135 13.5625 68.6823 13.6823 69.2344 13.7969C70.4115 14.0156 71.4844 14.3229 72.4531 14.7188C73.4323 15.1146 74.2135 15.6615 74.7969 16.3594C75.3906 17.0573 75.6875 17.9792 75.6875 19.125C75.6875 19.875 75.5156 20.5625 75.1719 21.1875C74.8385 21.8125 74.3542 22.3594 73.7188 22.8281C73.0833 23.2969 72.3229 23.6615 71.4375 23.9219C70.5521 24.1823 69.5521 24.3125 68.4375 24.3125C66.8438 24.3125 65.4948 24.026 64.3906 23.4531C63.2865 22.8802 62.4531 22.1615 61.8906 21.2969C61.3385 20.4219 61.0625 19.526 61.0625 18.6094H65.6406C65.6615 19.1719 65.8021 19.6302 66.0625 19.9844C66.3333 20.3385 66.6823 20.599 67.1094 20.7656C67.5365 20.9219 68.0156 21 68.5469 21C69.0781 21 69.5208 20.9271 69.875 20.7812C70.2292 20.6354 70.5 20.4375 70.6875 20.1875C70.875 19.9271 70.9688 19.6302 70.9688 19.2969Z" fill="#192A6B"/>
</svg>
