<svg width="32" height="32" viewBox="0 0 32 32" fill="none" xmlns="http://www.w3.org/2000/svg">
<path d="M29.3332 6.90666L14.1198 22.1333L8.4665 16.48L10.3465 14.6L14.1198 18.3733L27.4532 5.03999L29.3332 6.90666ZM26.3865 13.6267C26.5598 14.3867 26.6665 15.1867 26.6665 16C26.6665 21.8933 21.8932 26.6667 15.9998 26.6667C10.1065 26.6667 5.33317 21.8933 5.33317 16C5.33317 10.1067 10.1065 5.33332 15.9998 5.33332C18.1065 5.33332 20.0532 5.94666 21.7065 6.99999L23.6265 5.07999C21.4665 3.55999 18.8398 2.66666 15.9998 2.66666C8.63984 2.66666 2.6665 8.63999 2.6665 16C2.6665 23.36 8.63984 29.3333 15.9998 29.3333C23.3598 29.3333 29.3332 23.36 29.3332 16C29.3332 14.4133 29.0398 12.8933 28.5332 11.48L26.3865 13.6267Z" fill="#15347F"/>
</svg>
