<svg width="32" height="32" viewBox="0 0 32 32" fill="none" xmlns="http://www.w3.org/2000/svg">
<path d="M26.6668 12V9.33332C26.6668 7.86666 25.4668 6.66666 24.0002 6.66666H20.0002C20.0002 4.45332 18.2135 2.66666 16.0002 2.66666C13.7868 2.66666 12.0002 4.45332 12.0002 6.66666H8.00016C6.5335 6.66666 5.3335 7.86666 5.3335 9.33332V12C3.12016 12 1.3335 13.7867 1.3335 16C1.3335 18.2133 3.12016 20 5.3335 20V25.3333C5.3335 26.8 6.5335 28 8.00016 28H24.0002C25.4668 28 26.6668 26.8 26.6668 25.3333V20C28.8802 20 30.6668 18.2133 30.6668 16C30.6668 13.7867 28.8802 12 26.6668 12ZM10.0002 15.3333C10.0002 14.2267 10.8935 13.3333 12.0002 13.3333C13.1068 13.3333 14.0002 14.2267 14.0002 15.3333C14.0002 16.44 13.1068 17.3333 12.0002 17.3333C10.8935 17.3333 10.0002 16.44 10.0002 15.3333ZM21.3335 22.6667H10.6668V20H21.3335V22.6667ZM20.0002 17.3333C18.8935 17.3333 18.0002 16.44 18.0002 15.3333C18.0002 14.2267 18.8935 13.3333 20.0002 13.3333C21.1068 13.3333 22.0002 14.2267 22.0002 15.3333C22.0002 16.44 21.1068 17.3333 20.0002 17.3333Z" fill="#15347F"/>
</svg>
